<?xml version="1.0" standalone="no"?>
<!DOCTYPE svg PUBLIC "-//W3C//DTD SVG 20010904//EN"
 "http://www.w3.org/TR/2001/REC-SVG-20010904/DTD/svg10.dtd">
<svg version="1.0" xmlns="http://www.w3.org/2000/svg"
 width="512.000000pt" height="512.000000pt" viewBox="0 0 512.000000 512.000000"
 preserveAspectRatio="xMidYMid meet">
<metadata>
Created by potrace 1.14, written by Peter Selinger 2001-2017
</metadata>
<g transform="translate(0.000000,512.000000) scale(0.100000,-0.100000)"
fill="#000000" stroke="none">
<path d="M2332 5110 c-209 -21 -467 -78 -648 -145 -160 -59 -389 -176 -534
-273 -387 -258 -685 -597 -885 -1007 -89 -183 -136 -306 -180 -479 -89 -352
-108 -690 -55 -1026 6 -36 12 -78 14 -95 3 -16 14 -68 26 -115 77 -310 191
-570 365 -830 384 -575 989 -974 1665 -1095 386 -70 723 -57 1105 40 325 83
652 245 934 463 111 85 348 322 433 433 161 208 312 481 396 714 116 321 168
693 144 1027 -25 360 -101 645 -257 963 -130 266 -271 462 -490 680 -217 218
-411 358 -680 490 -251 123 -480 195 -750 236 -151 23 -462 32 -603 19z m568
-215 c210 -32 440 -98 605 -174 l83 -39 11 -53 c6 -30 20 -124 30 -209 83
-658 34 -1365 -135 -1947 l-15 -51 -82 27 c-241 82 -407 223 -516 438 -77 154
-116 295 -205 743 -86 432 -127 592 -211 815 -40 107 -130 292 -188 390 -20
32 -35 60 -33 62 1 2 43 7 92 12 123 13 438 5 564 -14z m-783 -183 c103 -174
198 -412 263 -657 16 -60 61 -267 100 -460 96 -477 135 -617 227 -800 133
-267 353 -451 646 -541 31 -10 57 -23 57 -29 0 -18 -68 -183 -127 -307 l-56
-117 -131 66 c-587 294 -1204 742 -1744 1267 -227 221 -503 529 -650 724 -66
87 -70 73 69 235 303 353 689 601 1146 736 l98 29 23 -25 c12 -13 48 -68 79
-121z m1784 -213 c322 -221 588 -529 770 -891 l71 -143 -6 -96 c-11 -176 -67
-348 -157 -480 -55 -82 -166 -193 -248 -248 -141 -96 -365 -182 -556 -214 -44
-8 -82 -13 -84 -11 -1 1 15 78 38 171 141 587 176 1240 97 1866 -6 53 -9 97
-6 97 4 0 40 -23 81 -51z m-3306 -827 c188 -242 531 -607 802 -854 503 -459
1017 -821 1591 -1120 l141 -74 -76 -115 c-118 -178 -89 -164 -221 -107 -262
112 -508 162 -1007 203 -351 29 -546 59 -743 115 -268 78 -557 225 -793 406
-64 49 -61 41 -80 244 -31 336 26 723 153 1045 44 110 156 335 166 335 4 -1
34 -36 67 -78z m4316 -922 c27 -304 -13 -635 -116 -945 -41 -125 -198 -453
-220 -461 -36 -14 -499 113 -763 210 -125 45 -391 152 -400 160 -1 2 20 51 48
109 41 87 128 297 152 367 4 12 33 19 107 28 550 69 964 347 1136 762 l18 45
13 -70 c7 -38 18 -131 25 -205z m-4476 -965 c117 -71 318 -167 437 -208 273
-95 451 -129 893 -167 523 -45 704 -79 953 -177 50 -20 92 -40 92 -45 0 -17
-258 -273 -370 -367 -197 -165 -422 -316 -624 -418 -108 -54 -100 -55 -307 48
-459 230 -832 602 -1057 1054 -59 118 -124 274 -138 331 -7 28 -7 28 17 13 13
-9 60 -37 104 -64z m3085 -332 c251 -103 537 -197 820 -268 58 -15 107 -28
109 -31 8 -8 -117 -153 -223 -260 -172 -172 -347 -302 -550 -409 -56 -30 -105
-55 -108 -55 -2 0 2 35 9 78 31 173 -19 338 -151 500 -54 67 -179 175 -252
218 -24 14 -44 28 -44 31 0 4 33 56 73 117 41 61 81 123 91 139 16 27 17 27
54 11 20 -9 98 -41 172 -71z m-304 -518 c73 -71 100 -105 127 -163 61 -127 58
-234 -10 -372 -25 -50 -47 -79 -64 -88 -44 -20 -256 -70 -379 -89 -143 -21
-492 -24 -625 -5 -93 14 -229 39 -254 48 -8 3 37 36 108 79 291 176 570 405
780 639 l103 115 61 -37 c34 -20 103 -78 153 -127z"/>
</g>
</svg>
